<mxfile host="65bd71144e">
    <diagram id="2J2UBcVosCLTtqAoPLyl" name="Page-1">
        <mxGraphModel dx="2357" dy="1542" grid="1" gridSize="10" guides="1" tooltips="1" connect="1" arrows="1" fold="1" page="1" pageScale="1" pageWidth="827" pageHeight="1169" math="0" shadow="0">
            <root>
                <mxCell id="0"/>
                <mxCell id="1" parent="0"/>
                <mxCell id="2" value="MVP1:&lt;br&gt;Proof of concept:&lt;br&gt;1) Log into spotify using OAuth2&lt;br&gt;2) Display profile data&lt;br&gt;3) Display playlists" style="text;html=1;strokeColor=none;fillColor=none;align=center;verticalAlign=middle;whiteSpace=wrap;rounded=0;" parent="1" vertex="1">
                    <mxGeometry x="-1647" y="-1134" width="280" height="30" as="geometry"/>
                </mxCell>
                <mxCell id="3" value="For async functionality:&lt;br&gt;1) handler in JSX&lt;br&gt;2) state in component&lt;br&gt;3) handler sends fetch request and updates state&lt;br&gt;4) component rerenders with updated state" style="text;html=1;align=center;verticalAlign=middle;resizable=0;points=[];autosize=1;strokeColor=none;fillColor=none;" parent="1" vertex="1">
                    <mxGeometry x="-1247" y="-1054" width="280" height="90" as="geometry"/>
                </mxCell>
                <mxCell id="4" value="Application" style="rounded=0;whiteSpace=wrap;html=1;" parent="1" vertex="1">
                    <mxGeometry x="-1507" y="-734" width="120" height="60" as="geometry"/>
                </mxCell>
                <mxCell id="5" value="" style="endArrow=classic;html=1;exitX=1;exitY=0.5;exitDx=0;exitDy=0;" parent="1" source="4" edge="1">
                    <mxGeometry width="50" height="50" relative="1" as="geometry">
                        <mxPoint x="-1227" y="-794" as="sourcePoint"/>
                        <mxPoint x="-1217" y="-704" as="targetPoint"/>
                    </mxGeometry>
                </mxCell>
                <mxCell id="6" value="On load - redirect to auth" style="text;html=1;align=center;verticalAlign=middle;resizable=0;points=[];autosize=1;strokeColor=none;fillColor=none;" parent="1" vertex="1">
                    <mxGeometry x="-1387" y="-704" width="160" height="30" as="geometry"/>
                </mxCell>
                <mxCell id="7" value="Local storage" style="rounded=0;whiteSpace=wrap;html=1;" parent="1" vertex="1">
                    <mxGeometry x="-1137" y="-874" width="120" height="60" as="geometry"/>
                </mxCell>
                <mxCell id="8" value="" style="endArrow=classic;html=1;entryX=0.5;entryY=1;entryDx=0;entryDy=0;" parent="1" target="7" edge="1">
                    <mxGeometry width="50" height="50" relative="1" as="geometry">
                        <mxPoint x="-1307" y="-704" as="sourcePoint"/>
                        <mxPoint x="-1177" y="-844" as="targetPoint"/>
                        <Array as="points">
                            <mxPoint x="-1307" y="-744"/>
                        </Array>
                    </mxGeometry>
                </mxCell>
                <mxCell id="9" value="Store code verifier" style="text;html=1;strokeColor=none;fillColor=none;align=center;verticalAlign=middle;whiteSpace=wrap;rounded=0;" parent="1" vertex="1">
                    <mxGeometry x="-1257" y="-824" width="60" height="30" as="geometry"/>
                </mxCell>
                <mxCell id="11" value="Spotify authenticator" style="rounded=0;whiteSpace=wrap;html=1;" parent="1" vertex="1">
                    <mxGeometry x="-1217" y="-734" width="120" height="60" as="geometry"/>
                </mxCell>
                <mxCell id="12" value="Main" style="rounded=0;whiteSpace=wrap;html=1;" parent="1" vertex="1">
                    <mxGeometry x="-957" y="-734" width="120" height="60" as="geometry"/>
                </mxCell>
                <mxCell id="13" value="" style="endArrow=classic;html=1;exitX=1;exitY=0.5;exitDx=0;exitDy=0;entryX=0;entryY=0.5;entryDx=0;entryDy=0;" parent="1" source="11" target="12" edge="1">
                    <mxGeometry width="50" height="50" relative="1" as="geometry">
                        <mxPoint x="-917" y="-664" as="sourcePoint"/>
                        <mxPoint x="-867" y="-714" as="targetPoint"/>
                    </mxGeometry>
                </mxCell>
                <mxCell id="14" value="Redirect with code query" style="text;html=1;strokeColor=none;fillColor=none;align=center;verticalAlign=middle;whiteSpace=wrap;rounded=0;" parent="1" vertex="1">
                    <mxGeometry x="-1067" y="-694" width="60" height="30" as="geometry"/>
                </mxCell>
                <mxCell id="17" value="On load - read code from URL and get access token" style="text;html=1;strokeColor=none;fillColor=none;align=center;verticalAlign=middle;whiteSpace=wrap;rounded=0;" parent="1" vertex="1">
                    <mxGeometry x="-927" y="-794" width="60" height="30" as="geometry"/>
                </mxCell>
                <mxCell id="18" value="" style="endArrow=classic;html=1;exitX=0.5;exitY=1;exitDx=0;exitDy=0;entryX=0.5;entryY=0;entryDx=0;entryDy=0;" parent="1" source="7" target="12" edge="1">
                    <mxGeometry width="50" height="50" relative="1" as="geometry">
                        <mxPoint x="-947" y="-734" as="sourcePoint"/>
                        <mxPoint x="-897" y="-784" as="targetPoint"/>
                    </mxGeometry>
                </mxCell>
                <mxCell id="19" value="" style="endArrow=classic;html=1;entryX=1;entryY=0.5;entryDx=0;entryDy=0;" parent="1" target="7" edge="1">
                    <mxGeometry width="50" height="50" relative="1" as="geometry">
                        <mxPoint x="-897" y="-814" as="sourcePoint"/>
                        <mxPoint x="-897" y="-784" as="targetPoint"/>
                    </mxGeometry>
                </mxCell>
                <mxCell id="20" value="After load - make API calls" style="text;html=1;strokeColor=none;fillColor=none;align=center;verticalAlign=middle;whiteSpace=wrap;rounded=0;" parent="1" vertex="1">
                    <mxGeometry x="-927" y="-664" width="60" height="30" as="geometry"/>
                </mxCell>
                <mxCell id="21" value="Retrieve code verifier" style="text;html=1;strokeColor=none;fillColor=none;align=center;verticalAlign=middle;whiteSpace=wrap;rounded=0;" parent="1" vertex="1">
                    <mxGeometry x="-1047" y="-774" width="60" height="30" as="geometry"/>
                </mxCell>
                <mxCell id="22" value="Store access token" style="text;html=1;strokeColor=none;fillColor=none;align=center;verticalAlign=middle;whiteSpace=wrap;rounded=0;" parent="1" vertex="1">
                    <mxGeometry x="-977" y="-874" width="60" height="30" as="geometry"/>
                </mxCell>
                <mxCell id="23" value="" style="endArrow=classic;html=1;exitX=0.5;exitY=0;exitDx=0;exitDy=0;" parent="1" source="7" edge="1">
                    <mxGeometry width="50" height="50" relative="1" as="geometry">
                        <mxPoint x="-997" y="-754" as="sourcePoint"/>
                        <mxPoint x="-897" y="-624" as="targetPoint"/>
                        <Array as="points">
                            <mxPoint x="-1017" y="-914"/>
                            <mxPoint x="-827" y="-914"/>
                            <mxPoint x="-827" y="-584"/>
                            <mxPoint x="-897" y="-584"/>
                        </Array>
                    </mxGeometry>
                </mxCell>
                <mxCell id="24" value="Retrieve access token" style="text;html=1;strokeColor=none;fillColor=none;align=center;verticalAlign=middle;whiteSpace=wrap;rounded=0;" parent="1" vertex="1">
                    <mxGeometry x="-957" y="-954" width="60" height="30" as="geometry"/>
                </mxCell>
                <mxCell id="25" value="Breakdown:&lt;br&gt;1):&lt;br&gt;a) on application load - generate code verifier and store in local storage, generate code challenge&lt;br&gt;b) redirect to spotify log-in page using code challenge, and redirect to main page&lt;br&gt;c) after redirect, read the code from the URL, and retrieve code verifier from local storage&lt;br&gt;d) send get request to retrieve an access token and store in local storage&lt;br&gt;&lt;br&gt;2):&lt;br&gt;a) retrieve access token from local storage and send get request to profile endpoint&lt;br&gt;b) display response on page&lt;br&gt;&lt;br&gt;3):&lt;br&gt;a) retrieve access token from local storage and send get requests to playlists endpoint&lt;br&gt;b) map response to indeividual playlists in HTML fragments&lt;br&gt;c) display playlists on page" style="text;html=1;strokeColor=none;fillColor=none;align=center;verticalAlign=middle;whiteSpace=wrap;rounded=0;" parent="1" vertex="1">
                    <mxGeometry x="-1617" y="-924" width="335" height="30" as="geometry"/>
                </mxCell>
            </root>
        </mxGraphModel>
    </diagram>
</mxfile>